<?xml version="1.0" standalone="no"?>
<!DOCTYPE svg PUBLIC "-//W3C//DTD SVG 20010904//EN"
 "http://www.w3.org/TR/2001/REC-SVG-20010904/DTD/svg10.dtd">
<svg version="1.0" xmlns="http://www.w3.org/2000/svg"
 width="440.000000pt" height="568.000000pt" viewBox="0 0 440.000000 568.000000"
 preserveAspectRatio="xMidYMid meet">

<g transform="translate(0.000000,568.000000) scale(0.100000,-0.100000)"
fill="#000000" stroke="none">
<path d="M1600 5630 c-101 -109 -217 -275 -294 -422 -150 -286 -168 -528 -49
-670 33 -40 34 -43 17 -56 -596 -422 -885 -753 -1089 -1247 -189 -455 -230
-967 -114 -1410 41 -161 126 -386 209 -560 281 -585 825 -1024 1476 -1189 217
-55 523 -81 780 -66 453 27 755 125 1056 344 l82 60 -135 27 c-878 179 -1606
572 -2068 1118 -224 263 -355 482 -465 777 -76 204 -90 289 -90 569 0 216 2
249 22 335 49 200 129 389 233 545 103 153 265 302 394 361 164 76 256 71 362
-17 32 -27 110 -89 173 -138 134 -104 320 -290 410 -411 106 -143 189 -341
198 -471 4 -73 3 -77 -24 -108 -34 -37 -71 -45 -273 -61 -506 -39 -908 42
-1139 229 -34 28 -65 51 -68 51 -15 0 89 -130 147 -184 130 -120 216 -145 629
-186 213 -21 349 -61 482 -141 170 -103 355 -133 470 -76 112 55 186 164 175
259 -6 49 -56 153 -117 243 -15 22 -92 153 -170 290 -79 138 -158 270 -176
295 -45 63 -114 224 -114 266 0 40 33 78 78 89 47 12 267 121 333 165 133 90
263 238 317 362 l21 48 -141 45 c-176 56 -267 80 -388 100 -210 34 -247 22
-412 -128 -206 -188 -191 -177 -254 -177 -92 0 -150 38 -161 104 -5 30 0 45
29 89 81 124 84 198 12 433 -60 200 -153 372 -272 504 l-50 55 -42 -45z"/>
</g>
</svg>
